# xmcd
#
# Track frame offsets:
#	150
#	15591
#	37114
#	54605
#	75552
#	93035
#	108205
#	130799
#	149820
#	163683
#	183674
#	199695
#	214555
#	235517
#
# Disc length: 3394 seconds
#
# Revision: 0
# Processed by: cddbd v1.5.2PL0 Copyright (c) Steve Scherf et al.
# Submitted via: dBpowerAMP V4.0
#
DISCID=b70d400e
DTITLE=Various Artist - Lookbook
DYEAR=2009
DGENRE=Cuban
TTITLE0=Roberto Carrion - No Quiero Celos Contigo
TTITLE1=Julio Rodriquez - En La Casa De La Trova
TTITLE2=Luis Marquetti - Alli Donde Tu Sabes
TTITLE3=U Herrera - Que Te Parece Chollito
TTITLE4=Nico Saquito - Al Vaiven De Mi Carreta
TTITLE5=Miquel Matamoros - Beso Discreto
TTITLE6=Nico Saquito - Me Tenian Amarrado Con P
TTITLE7=Sergio Gonzales Siaba - El Cuarto De Tula
TTITLE8=Armando Valdespi - Alma De Mujer
TTITLE9=Lorenzo Hierrezuelo - Rita La Caimana
TTITLE10=Calixto Cardona - Yo Soy Del Monte Compay
TTITLE11=Cristobal Dale - Entre Las Flores
TTITLE12=Mendez Carlos - En Casa De Pedro El Cojo
TTITLE13=Roberto Carrion - No Quiero Celos
EXTD=
EXTT0=
EXTT1=
EXTT2=
EXTT3=
EXTT4=
EXTT5=
EXTT6=
EXTT7=
EXTT8=
EXTT9=
EXTT10=
EXTT11=
EXTT12=
EXTT13=
PLAYORDER=
